<?xml version="1.0" encoding="utf-8"?>
<!-- Generator: Adobe Illustrator 25.1.0, SVG Export Plug-In . SVG Version: 6.00 Build 0)  -->
<svg version="1.1" id="Layer_1" xmlns="http://www.w3.org/2000/svg" xmlns:xlink="http://www.w3.org/1999/xlink" x="0px" y="0px"
	 viewBox="0 0 849.8 673.2" style="enable-background:new 0 0 849.8 673.2;" xml:space="preserve">
<style type="text/css">
	.st0{fill:#64AAD7;}
	.st1{fill:#A9C740;}
	.st2{fill-rule:evenodd;clip-rule:evenodd;}
	.st3{fill:none;}
</style>
<ellipse transform="matrix(0.7071 -0.7071 0.7071 0.7071 -118.1217 395.2968)" cx="418.1" cy="340.2" rx="122.6" ry="122.6"/>
<ellipse transform="matrix(0.7071 -0.7071 0.7071 0.7071 -117.7871 395.4648)" class="st0" cx="418.5" cy="339.9" rx="105.2" ry="105.2"/>
<path class="st1" d="M319.6,376c0,0.1,0.1,0.2,0.1,0.3C319.7,376.2,319.7,376.1,319.6,376z"/>
<path class="st1" d="M320.5,378.4c0.1,0.2,0.1,0.3,0.2,0.5C320.7,378.7,320.6,378.5,320.5,378.4z"/>
<path class="st1" d="M314.8,358l0.2,0.9L314.8,358z"/>
<path class="st1" d="M315.3,360.6c0.1,0.3,0.1,0.5,0.2,0.8C315.4,361.1,315.4,360.9,315.3,360.6z"/>
<path class="st1" d="M316.5,365.9c0,0.1,0.1,0.3,0.1,0.4C316.6,366.1,316.5,366,316.5,365.9z"/>
<path class="st1" d="M315.9,363.2c0,0.2,0.1,0.4,0.1,0.7C316,363.6,315.9,363.4,315.9,363.2z"/>
<path class="st1" d="M321.5,380.6c0.1,0.2,0.2,0.4,0.3,0.6C321.6,381.1,321.5,380.9,321.5,380.6z"/>
<path class="st1" d="M322.4,382.9c0.1,0.2,0.2,0.5,0.3,0.7C322.7,383.4,322.5,383.1,322.4,382.9z"/>
<path class="st1" d="M522.9,352.6c-2.7,21.7-12,42.1-26.8,58.2c-3.4-10.9-13.6-18.3-25-18.3h-13.2v-39.4c0-7.3-5.9-13.1-13.2-13.2
	h-78.9v-26.3h26.3c7.3,0,13.1-5.9,13.2-13.1v-26.3h26.3c14.5,0,26.3-11.8,26.3-26.3v-5.4c35.5,14.4,60.4,47,65,85
	c-7.1-57.7-59.6-98.6-117.3-91.5c-52.5,6.5-92.1,51-92.3,103.9c0-7.9,1-15.8,2.8-23.5l63,63v13.1c0,14.5,11.8,26.2,26.2,26.3v25.4
	c-31.5-3.9-59.5-21.9-76.2-48.8c30.6,49.4,95.5,64.6,144.9,33.9C501,412.5,519,384.3,522.9,352.6L522.9,352.6z"/>
<path class="st1" d="M327.4,392.5l-0.5-1L327.4,392.5z"/>
<path class="st1" d="M326.2,390.4l-0.5-0.9L326.2,390.4z"/>
<path class="st1" d="M323.5,385.1c0.1,0.3,0.2,0.5,0.4,0.8C323.7,385.6,323.6,385.4,323.5,385.1z"/>
<path class="st1" d="M328.7,394.7l-0.7-1.1L328.7,394.7z"/>
<path class="st1" d="M324.6,387.3l0.4,0.8L324.6,387.3z"/>
<path class="st1" d="M313.3,342.5v0.8V342.5z"/>
<path class="st1" d="M523.6,343.7c0-0.4,0-0.8,0-1.2C523.6,342.9,523.6,343.3,523.6,343.7z"/>
<path class="st1" d="M523.4,346.7c0-0.5,0.1-1.1,0.1-1.6C523.5,345.7,523.5,346.2,523.4,346.7z"/>
<path class="st1" d="M522.9,352.3c0.1-0.7,0.2-1.5,0.2-2.2C523.1,350.9,523,351.6,522.9,352.3z"/>
<path class="st1" d="M523.2,349.6c0.1-0.6,0.1-1.3,0.2-1.9C523.3,348.3,523.3,348.9,523.2,349.6z"/>
<path class="st1" d="M418.5,208.4"/>
<path class="st1" d="M314.4,355.5c0,0.3,0.1,0.6,0.1,0.9C314.5,356.1,314.5,355.8,314.4,355.5z"/>
<path class="st1" d="M418.3,471.4L418.3,471.4z"/>
<path class="st1" d="M313.6,347.7c0,0.3,0,0.7,0.1,1C313.6,348.4,313.6,348.1,313.6,347.7z"/>
<path class="st1" d="M313.8,350.3c0,0.3,0.1,0.7,0.1,1C313.9,351,313.8,350.7,313.8,350.3z"/>
<path class="st1" d="M314.1,352.9c0,0.3,0.1,0.7,0.1,1C314.2,353.5,314.1,353.2,314.1,352.9z"/>
<path class="st1" d="M313.4,345.1c0,0.3,0,0.7,0,1C313.4,345.8,313.4,345.5,313.4,345.1z"/>
<path class="st1" d="M523,328c0.3,2.5,0.5,4.9,0.6,7.4C523.5,332.9,523.3,330.4,523,328z"/>
<path class="st1" d="M523.7,340.1c0-0.1,0-0.1,0-0.2c0-1.2,0-2.5-0.1-3.7c0,1.2,0.1,2.5,0.1,3.7C523.7,340,523.7,340,523.7,340.1z"
	/>
<path class="st2" d="M353,511.5c-7.1,5.1-11.1,13.6-10.5,22.4v0.1c0.6,6.5,3.8,12.5,8.9,16.6c4.7,3.6,10.3,5.8,16.1,6.4l0,0
	l65.5,7.7c20.8,2.9,63,15,101.9,1.4l0,0c36.1-12.6,45.7-24.4,71.9-46.5l0,0c29.7-25.1,39.3-34.4,54.4-42.8l6.1,16.4
	c0.4,1.1,1,2,1.8,2.9c0.8,0.8,1.7,1.5,2.7,2c1,0.5,2.1,0.8,3.3,0.8c1.1,0.1,2.3-0.1,3.3-0.5l46.4-16.2c1.1-0.4,2.1-1,3-1.8
	c2.7-2.4,3.6-6.1,2.4-9.5l-46.5-133.1c-1.6-4.6-6.6-7-11.2-5.4c0,0,0,0,0,0l-47.6,16.6c-2.2,0.8-4,2.4-5,4.5c-1,2.1-1.2,4.5-0.4,6.7
	l3.3,9.6l-69.3,24.2c-2.1,0.7-3.9,2.3-4.9,4.3L522,450.1l-64.6,24l0,0c-12,4.4-17.4,17.5-15.2,30.1l-76.2,2.9l0,0
	C361.3,507.3,356.9,508.8,353,511.5L353,511.5z M363.3,525.8c0.9-0.6,2-1,3.2-1.1l0,0l84.1-3.2c6.7,7.1,16.3,10.7,25.9,7.3l0,0
	l79.6-27.8c1.1-0.4,2.1-1,3-1.7c0.9-0.8,1.6-1.7,2.1-2.8c1.6-3.2,1.1-7.1-1.4-9.8c-1.6-1.8-3.8-2.8-6.2-2.9c-1.2,0-2.3,0.1-3.4,0.5
	l-79.5,27.8l0,0c-2.7,0.9-8.3-1.5-10.7-8.4s0.5-12.2,3.3-13.2l0,0l67.9-25.2c1-0.4,2-0.9,2.8-1.7c0.8-0.7,1.5-1.6,2-2.6l26.6-51.8
	l66-23.1l5.3,15c0.4,1.1,1,2.1,1.7,3c0.8,0.9,1.7,1.6,2.8,2.1c1.1,0.5,2.2,0.8,3.4,0.9c1.2,0.1,2.3-0.1,3.4-0.5c1.1-0.4,2.1-1,3-1.8
	c2.7-2.4,3.6-6.2,2.4-9.6l-11.5-32.9l31-10.8l40.7,116.5l-29.9,10.4l-19.2-51.6c-0.4-1.1-1-2.1-1.8-3c-1.6-1.7-3.8-2.8-6.2-2.8
	c-1.2,0-2.3,0.1-3.4,0.5c-2.2,0.8-4,2.5-5,4.6c-0.5,1.1-0.7,2.2-0.8,3.4c0,1.2,0.2,2.3,0.6,3.4l9.9,26.6c-18.1,9.8-28.7,20-59.5,46
	l0,0c-27,22.7-32.4,31.5-66.3,43.4l0,0c-31.9,11.2-70.2,1.1-93.7-2.2h-0.2l-65.6-7.7l0,0c-2.6-0.2-5.1-1.2-7.2-2.7
	c-1.4-0.9-2.3-2.5-2.3-4.1c-0.2-2.7,1.1-5.2,3.3-6.8L363.3,525.8z"/>
<path class="st2" d="M469.9,158.7c6.7-5.7,10-14.4,8.7-23.1c0,0,0,0,0,0c-1.1-6.5-4.8-12.2-10.2-15.8c-4.9-3.2-10.7-5-16.6-5.1l0,0
	l-65.9-2.5c-20.9-1.3-64-10-101.7,6.7l0,0c-35,15.4-43.6,28-68,52.1l0,0c-27.7,27.3-36.5,37.4-50.8,47l-7.4-15.9
	c-1-2.1-2.7-3.7-4.9-4.5c-1.1-0.4-2.2-0.6-3.3-0.6c-1.1,0-2.3,0.3-3.3,0.8l-44.9,19.8c-1.1,0.5-2,1.2-2.8,2
	c-0.8,0.8-1.4,1.8-1.8,2.9c-0.4,1.1-0.6,2.2-0.6,3.4c0,1.2,0.3,2.3,0.8,3.4l56.9,129c0.5,1.1,1.2,2,2,2.8c1.7,1.6,4,2.5,6.3,2.4
	c1.2,0,2.3-0.3,3.3-0.7l46.2-20.3c3.3-1.4,5.3-4.7,5.2-8.3c0-1.2-0.3-2.3-0.8-3.4l-4.1-9.2l67.2-29.7c1-0.5,2-1.1,2.7-1.9
	c0.8-0.8,1.4-1.7,1.8-2.8l22.4-53.8l62.5-29l0,0c11.7-5.4,15.9-18.8,12.8-31.2l75.8-8.9l0,0C462,163.6,466.3,161.7,469.9,158.7
	L469.9,158.7z M458.4,145.3c-0.9,0.7-2,1.2-3.1,1.3l0,0l-83.6,9.9c-7.3-6.6-17.2-9.4-26.5-5.3l0,0l-77.1,34c-1.1,0.5-2.1,1.1-2.9,2
	c-1.7,1.7-2.6,4-2.5,6.3c0,2.4,1,4.6,2.8,6.2c0.8,0.8,1.8,1.4,2.9,1.9c2.2,0.8,4.7,0.7,6.8-0.2l77.1-34l0,0
	c2.6-1.1,8.3,0.8,11.3,7.5s0.5,12.2-2.2,13.4l0,0l-65.6,30.4c-1,0.5-1.9,1.1-2.7,1.9c-0.8,0.8-1.4,1.7-1.8,2.7L269,277.1l-64,28.2
	l-6.4-14.6c-0.9-2.2-2.7-3.9-4.9-4.8c-1.1-0.4-2.2-0.6-3.4-0.6c-1.2,0-2.3,0.3-3.4,0.8c-1.1,0.5-2,1.2-2.8,2c-1.6,1.7-2.5,4-2.4,6.4
	c0,1.2,0.3,2.3,0.8,3.4l14.1,31.9l-30,13.2l-49.8-112.9l29-12.8l23.2,49.9c0.5,1.1,1.2,2,2,2.8c0.9,0.8,1.9,1.4,2.9,1.8
	c1.1,0.4,2.3,0.6,3.4,0.5c1.2,0,2.3-0.3,3.4-0.8c1.1-0.5,2-1.2,2.8-2c1.6-1.7,2.4-4,2.3-6.4c-0.1-1.2-0.4-2.3-0.8-3.4l-12-25.7
	c17.2-11.1,27-22.2,55.7-50.6l0,0c25.1-24.8,29.8-34,62.7-48.5l0,0c30.9-13.7,69.9-6.7,93.6-5.2h0.2l66,2.5l0,0
	c2.6,0,5.2,0.8,7.4,2.1c1.5,0.8,2.4,2.3,2.6,4C461.6,140.9,460.5,143.6,458.4,145.3L458.4,145.3z"/>
<line class="st3" x1="396.1" y1="162" x2="325.7" y2="170.1"/>
</svg>
